<svg xmlns="http://www.w3.org/2000/svg" width="800" height="800" class="icon" viewBox="0 0 1024 1024"><path fill="#FFF" d="m484 338 47-9a42 42 0 0 1 50 40c1 28-19 53-46 57l-7 1a67 67 0 0 1-71-36c-9-19-1-41 17-50a37 37 0 0 1 10-3z"/><path fill="#F4FDFF" d="m461 250-13-30a22 22 0 0 0-30-11 22 22 0 0 0-8 32l16 28"/><path fill="#524F75" d="M402 243a30 30 0 0 1 14-42c15-6 33 0 39 16l12 30a7 7 0 0 1-13 6l-12-31a14 14 0 0 0-21-6 15 15 0 0 0-5 21l16 28a7 7 0 0 1-13 7l-16-27a30 30 0 0 1-1-2z"/><path fill="#A8EFFF" d="m424 240 6 13a10 10 0 1 0 18-9l-6-12a10 10 0 1 0-18 8z"/><path fill="#E5FBFF" d="m310 663 82 28v24l-80 4c-18 1-34-13-35-31a32 32 0 0 1 0-1c0-14 11-25 25-25a25 25 0 0 1 8 1z"/><path fill="#524F75" d="M308 670a17 17 0 0 0-23 17v1c1 14 12 25 26 24l74-4v-12l-77-26zm92 15v37l-88 5c-22 1-41-16-42-38a40 40 0 0 1 0-2 32 32 0 0 1 42-31l88 29z"/><path fill="#E5FBFF" d="M684 695c-4-14-10-28-17-40-17-29-41-54-59-57l-115 67c-8 13-12 28-7 47 8 35 37 62 74 67 25 3 46 4 62 4 24 0 35-4 59-12l16 10v1a17 17 0 0 0 24-6l49-77a17 17 0 0 0-13-27l-25-3a42 42 0 0 0-35 12l-13 14z"/><path fill="#524F75" d="M692 676a50 50 0 0 1 41-14l25 3c14 2 23 14 22 28a25 25 0 0 1-4 10l-48 77c-8 12-23 15-35 8l-13-9c-17 6-20 7-27 8-10 3-19 4-31 4-17 0-38-2-63-5-40-5-72-34-81-73-4-19-1-37 9-52a8 8 0 0 1 2-2l115-67a7 7 0 0 1 5-1c20 3 45 27 65 60a153 153 0 0 1 13 29l5-4zm-194-5c-6 11-9 24-5 39 7 33 34 57 68 61 24 3 45 5 61 5 11 0 19-1 27-3l29-9a7 7 0 0 1 7 1l16 10c5 3 11 2 14-3l48-77a10 10 0 0 0 2-4 10 10 0 0 0-9-11l-25-3a35 35 0 0 0-29 10l-13 13c-4 4-11 2-13-4-3-13-8-26-15-37-17-28-38-49-52-53l-111 65z"/><path fill="#524F75" d="m740 673-10 15a7 7 0 1 0 12 8l10-14a7 7 0 0 0-12-9z"/><path fill="#E5FBFF" d="m533 456 53 8c6 1 11 0 16-2l38-25v-5c0-11 5-13 13-19a26 26 0 0 1 13-20l13-6c6-3 13-1 16 4a11 11 0 0 1-3 14h22c10 0 18 8 18 18 0 11-7 20-17 24l-31 12-59 80a46 46 0 0 1-23 13l-69 13"/><path fill="#524F75" d="M632 433v-1c0-9 3-14 9-20l5-3a33 33 0 0 1 17-22l13-7c9-5 20-2 25 7a18 18 0 0 1 3 10h10c14 0 25 12 25 26s-8 26-22 31l-29 11-57 79a8 8 0 0 1-1 0 53 53 0 0 1-27 15l-69 14a7 7 0 1 1-3-15l69-14a38 38 0 0 0 19-10l59-80a8 8 0 0 1 3-3l31-11c7-3 12-9 12-17 0-6-4-11-10-11h-22c-7 0-10-8-4-13a3 3 0 0 0 0-4 4 4 0 0 0-5-2l-13 7a18 18 0 0 0-10 14 8 8 0 0 1-2 5l-7 5c-3 2-4 4-4 8v5a7 7 0 0 1-3 6l-38 25c-7 4-14 5-21 4l-54-9a7 7 0 1 1 3-15l54 9c3 1 7 0 10-2l34-22z"/><path fill="#94DBEB" d="m694 417-12 1a12 12 0 0 0-10 16 13 13 0 0 0 19 6l10-5a10 10 0 0 0 4-11 10 10 0 0 0-11-7z"/><path fill="#F1FDFF" d="M339 467c-15 40-22 69-27 92-5 18-7 44-7 76-1 87 67 159 153 162l61 2a135 135 0 0 0 60-11c68-31 99-111 69-179-10-23-19-39-25-50a777 777 0 0 0-84-107h-2c38-13 65-49 65-92 0-54-44-94-88-102-31-8-68-10-110-6-54 5-99 44-99 99 0 30 12 56 31 76 15 15 7 31 3 40z"/><path fill="#524F75" d="M569 473a405 405 0 0 1 85 133c33 72 0 156-72 188a142 142 0 0 1-63 13l-61-3c-91-3-162-78-161-169a397 397 0 0 1 35-171l2-5c4-10 4-17 0-24a27 27 0 0 0-3-3c-22-23-34-51-34-81 0-57 46-101 106-107 43-4 81-2 113 6 51 11 93 56 93 110 0 41-22 77-57 94l17 19zm-34-28c35-12 59-46 59-85 0-46-37-86-81-95-31-8-67-10-108-6-53 6-93 44-93 92 0 26 11 51 30 71l4 5c8 12 8 23 2 37l-2 5a437 437 0 0 0-34 167c-1 82 64 150 146 153l61 3a127 127 0 0 0 57-11c65-29 93-105 65-169l-24-49a774 774 0 0 0-81-103c-8-2-8-12-1-15z"/><path fill="#F1FDFF" d="m379 458-54 9a25 25 0 0 1-15-3l-38-24v-6c0-10-6-12-13-19a26 26 0 0 0-14-19l-13-7c-5-3-12-1-15 4a11 11 0 0 0 2 14h-21c-10 0-18 8-18 18 0 11 7 21 17 25l31 11 59 81a46 46 0 0 0 23 12l69 14"/><path fill="#524F75" d="M279 436v-2c0-9-2-14-9-19l-4-4a33 33 0 0 0-17-22l-13-7c-9-4-20-1-26 7a18 18 0 0 0-2 11h-10c-14 0-26 11-26 25s9 27 22 32l29 10 57 79 1 1a53 53 0 0 0 27 15l70 13a7 7 0 0 0 3-14l-70-14a38 38 0 0 1-19-10l-58-80a8 8 0 0 0-3-3l-32-11c-7-3-12-10-12-18 0-5 5-10 11-10h21c7 0 10-9 5-13a3 3 0 0 1-1-5 4 4 0 0 1 6-1l13 7a18 18 0 0 1 9 13l3 5 7 5c3 3 3 4 3 8v5a7 7 0 0 0 4 7l38 24c6 4 13 5 20 4l54-9a7 7 0 1 0-2-14l-54 9a18 18 0 0 1-10-2l-35-22z"/><path fill="#94DBEB" d="m217 419 13 1a12 12 0 0 1 10 16 13 13 0 0 1-19 7l-10-5a10 10 0 0 1-4-12 10 10 0 0 1 10-7z"/><path fill="#FFF" d="M500 462a60 60 0 0 1 50 28l79 123a95 95 0 0 1-28 132 95 95 0 0 1-20 9l-51 18c-24 9-52-4-60-29a47 47 0 0 1-3-16V495c0-18 15-33 33-33zm-16-124 47-9a42 42 0 0 1 50 40c1 28-19 53-46 57l-7 1a67 67 0 0 1-71-36c-9-19-1-41 17-50a37 37 0 0 1 10-3z"/><path fill="#DE915C" d="m517 347 23-4a13 13 0 0 1 16 14l-1 1a26 26 0 0 1-20 21c-10 3-21-2-27-11v-1a13 13 0 0 1 9-20z"/><path fill="#524F75" d="M518 355a6 6 0 0 0-3 9 17 17 0 0 0 19 8 19 19 0 0 0 14-16 5 5 0 0 0-7-6l-23 5zm-3-15 23-5a20 20 0 0 1 25 23 33 33 0 0 1-26 29 32 32 0 0 1-35-15 21 21 0 0 1 13-32z"/><path fill="#F4FDFF" d="m360 294-29-14a23 23 0 0 1-6-32l7-10a22 22 0 0 1 32-4l2 2 19 27"/><path fill="#524F75" d="m331 253 7-11a15 15 0 0 1 21-2l1 1 19 26a7 7 0 0 0 12-9l-19-27h-1a15 15 0 0 0 0-1l-3-2c-13-10-31-8-42 5l-8 11c-9 14-5 33 9 42l29 15a7 7 0 0 0 7-13l-28-15a15 15 0 0 1-4-20z"/><path fill="#A6EFFF" d="m362 253 7 8a11 11 0 0 1 1 13 11 11 0 0 1-13 4l-10-4a13 13 0 0 1-5-20 13 13 0 0 1 20-1z"/><path fill="#FFF" d="M431 283a40 35 90 1 0 70 0 40 35 90 1 0-70 0Z"/><path fill="#FFF" d="M519 273a34 30 90 1 0 60 0 34 30 90 1 0-60 0Z"/><path fill="#524F75" d="M548 317c20 0 36-19 36-42s-16-43-36-43c-21 0-37 19-37 43s16 42 37 42zm0-15c-12 0-22-12-22-27s10-28 22-28c11 0 21 12 21 28s-10 27-21 27z"/><path fill="#232323" d="M544 288c-1 3-4 4-7 4-5 0-9-5-9-10s4-10 9-10 9 4 9 10l-6 1 4 5z"/><path fill="#524F75" d="M467 331c26 0 47-22 47-50s-21-51-47-51-47 23-47 51 21 50 47 50zm0-15c-17 0-32-15-32-35s15-36 32-36 33 16 33 36-15 35-33 35z"/><path fill="#232323" d="M465 297c-2 2-6 4-10 4-6 0-12-6-12-13s6-14 12-14c7 0 13 6 13 13l-9 2 6 8z"/><path fill="#E5FBFF" d="M443 661c15 6 32 15 51 28 31 20 48 57 42 94l-1 10c-27 9-54 13-79 13-16 0-37-1-62-4-36-4-65-31-73-67-4-19-1-34 7-47l17-14"/><path fill="#524F75" d="M456 799c-16 0-36-2-61-5-33-4-60-28-67-61-3-15-1-29 6-40l15-13a7 7 0 0 0-8-12l-18 14-1 1v1a67 67 0 0 0-9 52c9 39 41 69 80 73 26 3 47 5 63 5 26 0 53-5 81-14l4-2 3-14c5-40-12-79-45-101-21-14-38-23-53-29a7 7 0 1 0-6 14c14 6 31 15 50 27 29 19 44 53 39 87l-1 5c-25 8-49 12-72 12z"/><path fill="#524F75" d="M416 658a9 9 90 1 0 18 0 9 9 90 1 0-18 0Z"/><path fill="#F4FDFF" d="M455 713c24-13 42-19 54-18 12 0 29 7 52 22l-2 49a53 53 0 1 1-105-4l1-49z"/><path fill="#524F75" d="M461 761a45 45 0 1 0 91 3l1-44c-20-13-35-19-44-19-10 0-26 5-46 15l-2 45zm-9-56c25-13 44-19 57-19 14 0 32 8 56 23l4 2-2 54a60 60 0 1 1-121-4l2-54 4-2z"/><path fill="#F4FDFF" d="m454 745 2-39c0-10 8-18 17-17 9 0 17 8 16 18v11"/><path fill="#F4FDFF" d="m489 717 1-27c0-10 9-19 20-18 10 0 18 9 18 20l-1 27m0 1 1-13c0-9 8-16 17-16s17 8 16 17l-1 36"/><path fill="#524F75" d="m462 744 1-39c0-6 5-10 10-10s9 5 9 11v10a7 7 0 0 0 15 1v-11c0-14-10-26-23-26-14-1-25 11-26 24l-1 39a7 7 0 0 0 15 1z"/><path fill="#524F75" d="m497 718 1-27c0-7 6-12 12-12 7 0 12 6 11 12l-1 27a7 7 0 0 0 15 1l1-27c1-15-11-27-25-28-15 0-27 11-28 26l-1 27a7 7 0 0 0 15 1z"/><path fill="#524F75" d="M535 721v-12c0-5 5-9 10-9s9 4 9 9l-1 36a7 7 0 0 0 15 0l1-35c0-14-10-25-24-25-13-1-24 10-25 23v13a7 7 0 0 0 7 7 8 8 0 0 0 8-7z"/><path fill="#94DBEB" d="M510 733c13 0 23 11 23 24l-1 12a24 24 0 0 1-47-1v-12c1-13 12-23 25-23z"/><path fill="#524F75" d="m540 444-12 3c-6 1-11 3-20 2a7 7 0 0 0-2 15 81 81 0 0 0 39-5 7 7 0 0 0 4-9c-1-4-5-8-9-6z"/><path fill="#524F75" d="M475 456a9 9 0 1 0 17 0 9 9 0 1 0-17 0Z"/></svg>