<svg width="24" height="24" viewBox="0 0 24 24" fill="none" xmlns="http://www.w3.org/2000/svg">
<path d="M5.79003 13.1295L14.013 20.3235C14.982 21.1725 16.5 20.4825 16.5 19.194V4.806C16.5003 4.51764 16.4174 4.23531 16.2613 3.99284C16.1052 3.75036 15.8826 3.55801 15.62 3.43883C15.3574 3.31965 15.066 3.27868 14.7808 3.32083C14.4955 3.36298 14.2284 3.48647 14.0115 3.6765L5.79153 10.8705C5.63042 11.0113 5.50129 11.1849 5.41281 11.3797C5.32434 11.5746 5.27856 11.786 5.27856 12C5.27856 12.214 5.32434 12.4255 5.41281 12.6203C5.50129 12.8151 5.63042 12.9887 5.79153 13.1295H5.79003Z" fill="black"/>
</svg>
