<svg width="24" height="24" viewBox="0 0 24 24" fill="none" xmlns="http://www.w3.org/2000/svg">
<path fill-rule="evenodd" clip-rule="evenodd" d="M5.469 2.469C5.53867 2.39915 5.62143 2.34374 5.71255 2.30593C5.80367 2.26812 5.90135 2.24866 6 2.24866C6.09865 2.24866 6.19633 2.26812 6.28745 2.30593C6.37857 2.34374 6.46133 2.39915 6.531 2.469L15.531 11.469C15.6008 11.5387 15.6563 11.6214 15.6941 11.7125C15.7319 11.8037 15.7513 11.9013 15.7513 12C15.7513 12.0986 15.7319 12.1963 15.6941 12.2874C15.6563 12.3786 15.6008 12.4613 15.531 12.531L6.531 21.531C6.39017 21.6718 6.19916 21.7509 6 21.7509C5.80083 21.7509 5.60983 21.6718 5.469 21.531C5.32817 21.3902 5.24905 21.1992 5.24905 21C5.24905 20.8008 5.32817 20.6098 5.469 20.469L13.9395 12L5.469 3.531C5.39915 3.46133 5.34374 3.37857 5.30593 3.28745C5.26812 3.19633 5.24866 3.09865 5.24866 3C5.24866 2.90135 5.26812 2.80367 5.30593 2.71255C5.34374 2.62143 5.39915 2.53867 5.469 2.469Z" fill="black"/>
<path fill-rule="evenodd" clip-rule="evenodd" d="M11.469 2.469C11.5387 2.39915 11.6214 2.34374 11.7125 2.30593C11.8037 2.26812 11.9013 2.24866 12 2.24866C12.0986 2.24866 12.1963 2.26812 12.2874 2.30593C12.3786 2.34374 12.4613 2.39915 12.531 2.469L21.531 11.469C21.6008 11.5387 21.6563 11.6214 21.6941 11.7125C21.7319 11.8037 21.7513 11.9013 21.7513 12C21.7513 12.0986 21.7319 12.1963 21.6941 12.2874C21.6563 12.3786 21.6008 12.4613 21.531 12.531L12.531 21.531C12.3902 21.6718 12.1992 21.7509 12 21.7509C11.8008 21.7509 11.6098 21.6718 11.469 21.531C11.3282 21.3902 11.249 21.1992 11.249 21C11.249 20.8008 11.3282 20.6098 11.469 20.469L19.9395 12L11.469 3.531C11.3992 3.46133 11.3437 3.37857 11.3059 3.28745C11.2681 3.19633 11.2487 3.09865 11.2487 3C11.2487 2.90135 11.2681 2.80367 11.3059 2.71255C11.3437 2.62143 11.3992 2.53867 11.469 2.469Z" fill="black"/>
</svg>
