<svg width="24" height="24" viewBox="0 0 24 24" fill="none" xmlns="http://www.w3.org/2000/svg">
<path fill-rule="evenodd" clip-rule="evenodd" d="M12.531 2.469C12.6008 2.53867 12.6563 2.62143 12.6941 2.71255C12.7319 2.80367 12.7513 2.90135 12.7513 3C12.7513 3.09865 12.7319 3.19633 12.6941 3.28745C12.6563 3.37857 12.6008 3.46133 12.531 3.531L4.0605 12L12.531 20.469C12.6718 20.6098 12.7509 20.8008 12.7509 21C12.7509 21.1992 12.6718 21.3902 12.531 21.531C12.3902 21.6718 12.1992 21.7509 12 21.7509C11.8008 21.7509 11.6098 21.6718 11.469 21.531L2.469 12.531C2.39915 12.4613 2.34374 12.3786 2.30593 12.2874C2.26812 12.1963 2.24866 12.0986 2.24866 12C2.24866 11.9013 2.26812 11.8037 2.30593 11.7125C2.34374 11.6214 2.39915 11.5387 2.469 11.469L11.469 2.469C11.5387 2.39915 11.6214 2.34374 11.7125 2.30593C11.8037 2.26812 11.9013 2.24866 12 2.24866C12.0986 2.24866 12.1963 2.26812 12.2874 2.30593C12.3786 2.34374 12.4613 2.39915 12.531 2.469Z" fill="black"/>
<path fill-rule="evenodd" clip-rule="evenodd" d="M18.531 2.469C18.6008 2.53867 18.6563 2.62143 18.6941 2.71255C18.7319 2.80367 18.7513 2.90135 18.7513 3C18.7513 3.09865 18.7319 3.19633 18.6941 3.28745C18.6563 3.37857 18.6008 3.46133 18.531 3.531L10.0605 12L18.531 20.469C18.6007 20.5387 18.656 20.6215 18.6938 20.7126C18.7315 20.8037 18.7509 20.9014 18.7509 21C18.7509 21.0986 18.7315 21.1963 18.6938 21.2874C18.656 21.3785 18.6007 21.4613 18.531 21.531C18.4613 21.6007 18.3785 21.656 18.2874 21.6938C18.1963 21.7315 18.0986 21.7509 18 21.7509C17.9014 21.7509 17.8037 21.7315 17.7126 21.6938C17.6215 21.656 17.5387 21.6007 17.469 21.531L8.469 12.531C8.39915 12.4613 8.34374 12.3786 8.30593 12.2874C8.26812 12.1963 8.24866 12.0986 8.24866 12C8.24866 11.9013 8.26812 11.8037 8.30593 11.7125C8.34374 11.6214 8.39915 11.5387 8.469 11.469L17.469 2.469C17.5387 2.39915 17.6214 2.34374 17.7125 2.30593C17.8037 2.26812 17.9013 2.24866 18 2.24866C18.0986 2.24866 18.1963 2.26812 18.2874 2.30593C18.3786 2.34374 18.4613 2.39915 18.531 2.469Z" fill="black"/>
</svg>
