<svg xmlns="http://www.w3.org/2000/svg" width="24" height="24" viewBox="0 0 24 24" fill="none"><path fill-rule="evenodd" clip-rule="evenodd" d="M5.469 13.719C5.53867 13.6492 5.62143 13.5937 5.71255 13.5559C5.80367 13.5181 5.90135 13.4987 6 13.4987C6.09865 13.4987 6.19633 13.5181 6.28745 13.5559C6.37857 13.5937 6.46133 13.6492 6.531 13.719L12 19.1895L17.469 13.719C17.6098 13.5782 17.8008 13.499 18 13.499C18.1992 13.499 18.3902 13.5782 18.531 13.719C18.6718 13.8598 18.7509 14.0508 18.7509 14.25C18.7509 14.4492 18.6718 14.6402 18.531 14.781L12.531 20.781C12.4613 20.8508 12.3786 20.9063 12.2874 20.9441C12.1963 20.9819 12.0986 21.0013 12 21.0013C11.9013 21.0013 11.8037 20.9819 11.7125 20.9441C11.6214 20.9063 11.5387 20.8508 11.469 20.781L5.469 14.781C5.39915 14.7113 5.34374 14.6286 5.30593 14.5374C5.26812 14.4463 5.24866 14.3486 5.24866 14.25C5.24866 14.1513 5.26812 14.0537 5.30593 13.9625C5.34374 13.8714 5.39915 13.7887 5.469 13.719ZM5.469 10.281C5.53867 10.3508 5.62143 10.4063 5.71255 10.4441C5.80367 10.4819 5.90135 10.5013 6 10.5013C6.09865 10.5013 6.19633 10.4819 6.28745 10.4441C6.37857 10.4063 6.46133 10.3508 6.531 10.281L12 4.8105L17.469 10.281C17.6098 10.4218 17.8008 10.5009 18 10.5009C18.1992 10.5009 18.3902 10.4218 18.531 10.281C18.6718 10.1402 18.7509 9.94916 18.7509 9.75C18.7509 9.55083 18.6718 9.35983 18.531 9.219L12.531 3.219C12.4613 3.14915 12.3786 3.09374 12.2874 3.05593C12.1963 3.01812 12.0986 2.99866 12 2.99866C11.9013 2.99866 11.8037 3.01812 11.7125 3.05593C11.6214 3.09374 11.5387 3.14915 11.469 3.219L5.469 9.219C5.39915 9.28867 5.34374 9.37143 5.30593 9.46255C5.26812 9.55366 5.24866 9.65135 5.24866 9.75C5.24866 9.84865 5.26812 9.94633 5.30593 10.0374C5.34374 10.1286 5.39915 10.2113 5.469 10.281Z" fill="currentColor"/></svg>