<svg xmlns="http://www.w3.org/2000/svg" width="24" height="24" viewBox="0 0 24 24" fill="none"><path d="M18.75 13.5C20.1424 13.5 21.4777 14.0531 22.4623 15.0377C23.4469 16.0223 24 17.3576 24 18.75C24 20.1424 23.4469 21.4777 22.4623 22.4623C21.4777 23.4469 20.1424 24 18.75 24C17.3576 24 16.0223 23.4469 15.0377 22.4623C14.0531 21.4777 13.5 20.1424 13.5 18.75C13.5 17.3576 14.0531 16.0223 15.0377 15.0377C16.0223 14.0531 17.3576 13.5 18.75 13.5ZM19.281 22.281L21.531 20.031C21.6718 19.8902 21.7509 19.6992 21.7509 19.5C21.7509 19.3008 21.6718 19.1098 21.531 18.969C21.3902 18.8282 21.1992 18.7491 21 18.7491C20.8008 18.7491 20.6098 18.8282 20.469 18.969L19.5 19.9395V15.75C19.5 15.5511 19.421 15.3603 19.2803 15.2197C19.1397 15.079 18.9489 15 18.75 15C18.5511 15 18.3603 15.079 18.2197 15.2197C18.079 15.3603 18 15.5511 18 15.75V19.9395L17.031 18.969C16.8902 18.8282 16.6992 18.7491 16.5 18.7491C16.3008 18.7491 16.1098 18.8282 15.969 18.969C15.8282 19.1098 15.7491 19.3008 15.7491 19.5C15.7491 19.6992 15.8282 19.8902 15.969 20.031L18.219 22.281C18.2887 22.3508 18.3714 22.4063 18.4626 22.4441C18.5537 22.4819 18.6513 22.5013 18.75 22.5013C18.8487 22.5013 18.9463 22.4819 19.0374 22.4441C19.1286 22.4063 19.2113 22.3508 19.281 22.281Z" fill="currentColor"/><path d="M18.144 9.3345C18.6223 9.1201 19.0768 8.85616 19.5 8.547V10.5C19.5 10.9335 19.1805 11.481 18.3705 12.0105C19.2632 11.9601 20.157 12.0876 21 12.3855V6C21 4.4895 19.6875 3.3675 18.144 2.6655C16.533 1.9335 14.3595 1.5 12 1.5C9.6405 1.5 7.467 1.9335 5.856 2.6655C4.3125 3.3675 3 4.4895 3 6V19.5C3 21.0105 4.3125 22.1325 5.856 22.8345C7.467 23.565 9.6405 24 12 24C12.804 24 13.587 23.949 14.3325 23.8545C13.8641 23.4491 13.4538 22.9813 13.113 22.464C12.749 22.488 12.378 22.5 12 22.5C9.804 22.5 7.851 22.095 6.477 21.4695C5.034 20.8125 4.5 20.0595 4.5 19.5V17.547C4.9065 17.85 5.37 18.114 5.856 18.3345C7.467 19.065 9.6405 19.5 12 19.5H12.0405C11.986 19.0015 11.986 18.4985 12.0405 18H12C9.804 18 7.851 17.595 6.477 16.9695C5.034 16.3125 4.5 15.5595 4.5 15V13.047C4.9065 13.35 5.37 13.614 5.856 13.8345C7.467 14.565 9.6405 15 12 15C12.393 15 12.78 14.988 13.161 14.964C13.6076 14.305 14.1672 13.7301 14.814 13.266C13.947 13.416 12.999 13.5 12 13.5C9.804 13.5 7.851 13.095 6.477 12.4695C5.034 11.8125 4.5 11.0595 4.5 10.5V8.547C4.9065 8.85 5.37 9.114 5.856 9.3345C7.467 10.0665 9.6405 10.5 12 10.5C14.3595 10.5 16.533 10.0665 18.144 9.3345ZM4.5 6C4.5 5.439 5.034 4.6875 6.477 4.0305C7.851 3.4065 9.804 3 12 3C14.196 3 16.149 3.405 17.523 4.0305C18.966 4.6875 19.5 5.4405 19.5 6C19.5 6.561 18.966 7.3125 17.523 7.9695C16.149 8.5935 14.196 9 12 9C9.804 9 7.851 8.595 6.477 7.9695C5.034 7.3125 4.5 6.5595 4.5 6Z" fill="currentColor"/></svg>