<svg xmlns="http://www.w3.org/2000/svg" width="24" height="24" viewBox="0 0 24 24" fill="none"><path d="M2.88 0.758998C2.99739 0.739876 3.11764 0.748946 3.23083 0.785459C3.34403 0.821973 3.44691 0.884884 3.531 0.968998L4.5 1.9395L5.469 0.968998C5.53867 0.899153 5.62143 0.843739 5.71255 0.805929C5.80367 0.768119 5.90135 0.748657 6 0.748657C6.09865 0.748657 6.19633 0.768119 6.28745 0.805929C6.37857 0.843739 6.46133 0.899153 6.531 0.968998L7.5 1.9395L8.469 0.968998C8.53867 0.899153 8.62143 0.843739 8.71255 0.805929C8.80367 0.768119 8.90135 0.748657 9 0.748657C9.09865 0.748657 9.19633 0.768119 9.28745 0.805929C9.37857 0.843739 9.46133 0.899153 9.531 0.968998L10.5 1.9395L11.469 0.968998C11.5387 0.899153 11.6214 0.843739 11.7125 0.805929C11.8037 0.768119 11.9013 0.748657 12 0.748657C12.0987 0.748657 12.1963 0.768119 12.2874 0.805929C12.3786 0.843739 12.4613 0.899153 12.531 0.968998L13.5 1.9395L14.469 0.968998C14.5387 0.899153 14.6214 0.843739 14.7126 0.805929C14.8037 0.768119 14.9013 0.748657 15 0.748657C15.0987 0.748657 15.1963 0.768119 15.2874 0.805929C15.3786 0.843739 15.4613 0.899153 15.531 0.968998L16.5 1.9395L17.469 0.968998C17.5387 0.899153 17.6214 0.843739 17.7126 0.805929C17.8037 0.768119 17.9013 0.748657 18 0.748657C18.0987 0.748657 18.1963 0.768119 18.2874 0.805929C18.3786 0.843739 18.4613 0.899153 18.531 0.968998L19.5 1.9395L20.469 0.968998C20.553 0.884897 20.6559 0.821979 20.769 0.785433C20.8821 0.748888 21.0023 0.739762 21.1197 0.758808C21.237 0.777855 21.3482 0.824528 21.444 0.894978C21.5397 0.965428 21.6174 1.05764 21.6705 1.164L22.4205 2.664C22.4728 2.76829 22.5 2.88334 22.5 3V21C22.5 21.1167 22.4728 21.2317 22.4205 21.336L21.6705 22.836C21.6173 22.9421 21.5397 23.034 21.4441 23.1043C21.3484 23.1746 21.2375 23.2211 21.1203 23.2402C21.0032 23.2592 20.8832 23.2502 20.7702 23.2138C20.6573 23.1774 20.5545 23.1148 20.4705 23.031L19.5 22.0605L18.531 23.031C18.4613 23.1008 18.3786 23.1563 18.2874 23.1941C18.1963 23.2319 18.0987 23.2513 18 23.2513C17.9013 23.2513 17.8037 23.2319 17.7126 23.1941C17.6214 23.1563 17.5387 23.1008 17.469 23.031L16.5 22.0605L15.531 23.031C15.4613 23.1008 15.3786 23.1563 15.2874 23.1941C15.1963 23.2319 15.0987 23.2513 15 23.2513C14.9013 23.2513 14.8037 23.2319 14.7126 23.1941C14.6214 23.1563 14.5387 23.1008 14.469 23.031L13.5 22.0605L12.531 23.031C12.4613 23.1008 12.3786 23.1563 12.2874 23.1941C12.1963 23.2319 12.0987 23.2513 12 23.2513C11.9013 23.2513 11.8037 23.2319 11.7125 23.1941C11.6214 23.1563 11.5387 23.1008 11.469 23.031L10.5 22.0605L9.531 23.031C9.46133 23.1008 9.37857 23.1563 9.28745 23.1941C9.19633 23.2319 9.09865 23.2513 9 23.2513C8.90135 23.2513 8.80367 23.2319 8.71255 23.1941C8.62143 23.1563 8.53867 23.1008 8.469 23.031L7.5 22.0605L6.531 23.031C6.46133 23.1008 6.37857 23.1563 6.28745 23.1941C6.19633 23.2319 6.09865 23.2513 6 23.2513C5.90135 23.2513 5.80367 23.2319 5.71255 23.1941C5.62143 23.1563 5.53867 23.1008 5.469 23.031L4.5 22.0605L3.531 23.031C3.44696 23.1151 3.34414 23.178 3.231 23.2146C3.11787 23.2511 2.99767 23.2602 2.88031 23.2412C2.76296 23.2221 2.65181 23.1755 2.55604 23.105C2.46027 23.0346 2.38262 22.9424 2.3295 22.836L1.5795 21.336C1.52723 21.2317 1.50001 21.1167 1.5 21V3C1.50001 2.88334 1.52723 2.76829 1.5795 2.664L2.3295 1.164C2.38262 1.05771 2.46023 0.965563 2.55594 0.89515C2.65165 0.824736 2.76272 0.778071 2.88 0.758998ZM3.2055 2.766L3 3.177V20.823L3.2055 21.234L3.9705 20.469C4.11115 20.3284 4.30188 20.2494 4.50075 20.2494C4.69962 20.2494 4.89035 20.3284 5.031 20.469L6 21.4395L6.969 20.4705C7.03867 20.4007 7.12143 20.3452 7.21255 20.3074C7.30367 20.2696 7.40135 20.2502 7.5 20.2502C7.59865 20.2502 7.69633 20.2696 7.78745 20.3074C7.87857 20.3452 7.96133 20.4007 8.031 20.4705L9 21.4395L9.969 20.4705C10.0387 20.4007 10.1214 20.3452 10.2125 20.3074C10.3037 20.2696 10.4013 20.2502 10.5 20.2502C10.5987 20.2502 10.6963 20.2696 10.7875 20.3074C10.8786 20.3452 10.9613 20.4007 11.031 20.4705L12 21.4395L12.969 20.4705C13.0387 20.4007 13.1214 20.3452 13.2126 20.3074C13.3037 20.2696 13.4013 20.2502 13.5 20.2502C13.5987 20.2502 13.6963 20.2696 13.7874 20.3074C13.8786 20.3452 13.9613 20.4007 14.031 20.4705L15 21.4395L15.969 20.4705C16.0387 20.4007 16.1214 20.3452 16.2126 20.3074C16.3037 20.2696 16.4013 20.2502 16.5 20.2502C16.5987 20.2502 16.6963 20.2696 16.7874 20.3074C16.8786 20.3452 16.9613 20.4007 17.031 20.4705L18 21.4395L18.969 20.4705C19.0387 20.4007 19.1214 20.3452 19.2126 20.3074C19.3037 20.2696 19.4013 20.2502 19.5 20.2502C19.5987 20.2502 19.6963 20.2696 19.7874 20.3074C19.8786 20.3452 19.9613 20.4007 20.031 20.4705L20.7945 21.234L21 20.823V3.177L20.7945 2.766L20.0295 3.531C19.8889 3.6716 19.6981 3.75059 19.4993 3.75059C19.3004 3.75059 19.1096 3.6716 18.969 3.531L18 2.5605L17.031 3.531C16.9613 3.60084 16.8786 3.65626 16.7874 3.69407C16.6963 3.73188 16.5987 3.75134 16.5 3.75134C16.4013 3.75134 16.3037 3.73188 16.2126 3.69407C16.1214 3.65626 16.0387 3.60084 15.969 3.531L15 2.5605L14.031 3.531C13.9613 3.60084 13.8786 3.65626 13.7874 3.69407C13.6963 3.73188 13.5987 3.75134 13.5 3.75134C13.4013 3.75134 13.3037 3.73188 13.2126 3.69407C13.1214 3.65626 13.0387 3.60084 12.969 3.531L12 2.5605L11.031 3.531C10.9613 3.60084 10.8786 3.65626 10.7875 3.69407C10.6963 3.73188 10.5987 3.75134 10.5 3.75134C10.4013 3.75134 10.3037 3.73188 10.2125 3.69407C10.1214 3.65626 10.0387 3.60084 9.969 3.531L9 2.5605L8.031 3.531C7.96133 3.60084 7.87857 3.65626 7.78745 3.69407C7.69633 3.73188 7.59865 3.75134 7.5 3.75134C7.40135 3.75134 7.30367 3.73188 7.21255 3.69407C7.12143 3.65626 7.03867 3.60084 6.969 3.531L6 2.5605L5.031 3.531C4.96133 3.60084 4.87857 3.65626 4.78745 3.69407C4.69633 3.73188 4.59865 3.75134 4.5 3.75134C4.40135 3.75134 4.30367 3.73188 4.21255 3.69407C4.12143 3.65626 4.03867 3.60084 3.969 3.531L3.2055 2.766Z" fill="currentColor"/><path d="M4.5 6.75C4.5 6.55109 4.57902 6.36032 4.71967 6.21967C4.86032 6.07902 5.05109 6 5.25 6H14.25C14.4489 6 14.6397 6.07902 14.7803 6.21967C14.921 6.36032 15 6.55109 15 6.75C15 6.94891 14.921 7.13968 14.7803 7.28033C14.6397 7.42098 14.4489 7.5 14.25 7.5H5.25C5.05109 7.5 4.86032 7.42098 4.71967 7.28033C4.57902 7.13968 4.5 6.94891 4.5 6.75ZM4.5 9.75C4.5 9.55109 4.57902 9.36032 4.71967 9.21967C4.86032 9.07902 5.05109 9 5.25 9H14.25C14.4489 9 14.6397 9.07902 14.7803 9.21967C14.921 9.36032 15 9.55109 15 9.75C15 9.94891 14.921 10.1397 14.7803 10.2803C14.6397 10.421 14.4489 10.5 14.25 10.5H5.25C5.05109 10.5 4.86032 10.421 4.71967 10.2803C4.57902 10.1397 4.5 9.94891 4.5 9.75ZM4.5 12.75C4.5 12.5511 4.57902 12.3603 4.71967 12.2197C4.86032 12.079 5.05109 12 5.25 12H14.25C14.4489 12 14.6397 12.079 14.7803 12.2197C14.921 12.3603 15 12.5511 15 12.75C15 12.9489 14.921 13.1397 14.7803 13.2803C14.6397 13.421 14.4489 13.5 14.25 13.5H5.25C5.05109 13.5 4.86032 13.421 4.71967 13.2803C4.57902 13.1397 4.5 12.9489 4.5 12.75ZM4.5 15.75C4.5 15.5511 4.57902 15.3603 4.71967 15.2197C4.86032 15.079 5.05109 15 5.25 15H14.25C14.4489 15 14.6397 15.079 14.7803 15.2197C14.921 15.3603 15 15.5511 15 15.75C15 15.9489 14.921 16.1397 14.7803 16.2803C14.6397 16.421 14.4489 16.5 14.25 16.5H5.25C5.05109 16.5 4.86032 16.421 4.71967 16.2803C4.57902 16.1397 4.5 15.9489 4.5 15.75ZM16.5 6.75C16.5 6.55109 16.579 6.36032 16.7197 6.21967C16.8603 6.07902 17.0511 6 17.25 6H18.75C18.9489 6 19.1397 6.07902 19.2803 6.21967C19.421 6.36032 19.5 6.55109 19.5 6.75C19.5 6.94891 19.421 7.13968 19.2803 7.28033C19.1397 7.42098 18.9489 7.5 18.75 7.5H17.25C17.0511 7.5 16.8603 7.42098 16.7197 7.28033C16.579 7.13968 16.5 6.94891 16.5 6.75ZM16.5 9.75C16.5 9.55109 16.579 9.36032 16.7197 9.21967C16.8603 9.07902 17.0511 9 17.25 9H18.75C18.9489 9 19.1397 9.07902 19.2803 9.21967C19.421 9.36032 19.5 9.55109 19.5 9.75C19.5 9.94891 19.421 10.1397 19.2803 10.2803C19.1397 10.421 18.9489 10.5 18.75 10.5H17.25C17.0511 10.5 16.8603 10.421 16.7197 10.2803C16.579 10.1397 16.5 9.94891 16.5 9.75ZM16.5 12.75C16.5 12.5511 16.579 12.3603 16.7197 12.2197C16.8603 12.079 17.0511 12 17.25 12H18.75C18.9489 12 19.1397 12.079 19.2803 12.2197C19.421 12.3603 19.5 12.5511 19.5 12.75C19.5 12.9489 19.421 13.1397 19.2803 13.2803C19.1397 13.421 18.9489 13.5 18.75 13.5H17.25C17.0511 13.5 16.8603 13.421 16.7197 13.2803C16.579 13.1397 16.5 12.9489 16.5 12.75ZM16.5 15.75C16.5 15.5511 16.579 15.3603 16.7197 15.2197C16.8603 15.079 17.0511 15 17.25 15H18.75C18.9489 15 19.1397 15.079 19.2803 15.2197C19.421 15.3603 19.5 15.5511 19.5 15.75C19.5 15.9489 19.421 16.1397 19.2803 16.2803C19.1397 16.421 18.9489 16.5 18.75 16.5H17.25C17.0511 16.5 16.8603 16.421 16.7197 16.2803C16.579 16.1397 16.5 15.9489 16.5 15.75Z" fill="currentColor"/></svg>