<svg xmlns="http://www.w3.org/2000/svg" width="24" height="24" viewBox="0 0 24 24" fill="none"><path d="M1.99951 4.0005C1.99951 1.791 6.47701 0 12 0C17.523 0 22.0005 1.791 22.0005 4.0005V6C22.0005 8.2095 17.523 10.0005 12 10.0005C6.47701 10.0005 1.99951 8.2095 1.99951 6V4.0005Z" fill="currentColor"/><path d="M1.99951 9.50098V14.001C1.99951 16.2075 6.47701 18 12 18C17.523 18 22.0005 16.209 22.0005 13.9995V9.50098C21.3251 9.98773 20.5901 10.386 19.8135 10.686C17.715 11.526 14.9505 12 12 12C9.04951 12 6.28651 11.5245 4.18801 10.686C3.41141 10.386 2.67643 9.98773 2.00101 9.50098H1.99951Z" fill="currentColor"/><path d="M22.0005 17.502C21.325 17.9882 20.59 18.386 19.8135 18.6855C17.7135 19.5255 14.9505 19.9995 11.9985 19.9995C9.04951 19.9995 6.28501 19.5255 4.18651 18.6855C3.40991 18.3855 2.67493 17.9872 1.99951 17.5005V19.9995C1.99951 22.209 6.47701 24 12 24C17.523 24 22.0005 22.209 22.0005 19.9995V17.502Z" fill="currentColor"/></svg>