<svg xmlns="http://www.w3.org/2000/svg" width="24" height="24" viewBox="0 0 24 24" fill="none"><g clip-path="url(#clip0_1648_282)"><path d="M12 22.5C9.21523 22.5 6.54451 21.3938 4.57538 19.4246C2.60625 17.4555 1.5 14.7848 1.5 12C1.5 9.21523 2.60625 6.54451 4.57538 4.57538C6.54451 2.60625 9.21523 1.5 12 1.5C14.7848 1.5 17.4555 2.60625 19.4246 4.57538C21.3938 6.54451 22.5 9.21523 22.5 12C22.5 14.7848 21.3938 17.4555 19.4246 19.4246C17.4555 21.3938 14.7848 22.5 12 22.5ZM12 24C15.1826 24 18.2348 22.7357 20.4853 20.4853C22.7357 18.2348 24 15.1826 24 12C24 8.8174 22.7357 5.76516 20.4853 3.51472C18.2348 1.26428 15.1826 0 12 0C8.8174 0 5.76516 1.26428 3.51472 3.51472C1.26428 5.76516 0 8.8174 0 12C0 15.1826 1.26428 18.2348 3.51472 20.4853C5.76516 22.7357 8.8174 24 12 24Z" fill="currentColor"/><path d="M10.5031 16.5C10.5031 16.303 10.5419 16.108 10.6172 15.926C10.6926 15.744 10.8031 15.5786 10.9424 15.4393C11.0817 15.3 11.247 15.1896 11.429 15.1142C11.611 15.0388 11.8061 15 12.0031 15C12.2 15 12.3951 15.0388 12.5771 15.1142C12.7591 15.1896 12.9244 15.3 13.0637 15.4393C13.203 15.5786 13.3135 15.744 13.3889 15.926C13.4643 16.108 13.5031 16.303 13.5031 16.5C13.5031 16.8978 13.345 17.2793 13.0637 17.5607C12.7824 17.842 12.4009 18 12.0031 18C11.6052 18 11.2237 17.842 10.9424 17.5607C10.6611 17.2793 10.5031 16.8978 10.5031 16.5ZM10.6501 7.49249C10.6301 7.30325 10.6501 7.11193 10.7089 6.93093C10.7676 6.74994 10.8637 6.58331 10.991 6.44187C11.1183 6.30043 11.2739 6.18733 11.4478 6.10992C11.6216 6.0325 11.8098 5.99249 12.0001 5.99249C12.1903 5.99249 12.3785 6.0325 12.5523 6.10992C12.7262 6.18733 12.8818 6.30043 13.0091 6.44187C13.1364 6.58331 13.2325 6.74994 13.2913 6.93093C13.35 7.11193 13.37 7.30325 13.3501 7.49249L12.8251 12.753C12.8074 12.9596 12.7129 13.1522 12.5601 13.2924C12.4073 13.4327 12.2075 13.5106 12.0001 13.5106C11.7926 13.5106 11.5928 13.4327 11.44 13.2924C11.2872 13.1522 11.1927 12.9596 11.1751 12.753L10.6501 7.49249Z" fill="currentColor"/></g><defs><clipPath id="clip0_1648_282"><rect width="24" height="24" fill="white"/></clipPath></defs></svg>