<svg xmlns="http://www.w3.org/2000/svg" width="480" height="480" fill="none"><g clip-path="url(#a)"><path fill="#000" d="M240.003 0c-5.28 0-10.51.17-15.69.51l1.92 29.94c9.171-.603 18.37-.603 27.54 0l1.92-29.94a239.98 239.98 0 0 0-15.69-.51Zm-46.8 4.56c-10.4 2.08-20.52 4.78-30.36 8.1l9.63 28.44c8.6-2.94 17.44-5.31 26.52-7.11l-5.79-29.4v-.03Zm123.96 8.13a239.98 239.98 0 0 0-30.33-8.1l-5.82 29.4c9.06 1.8 17.9 4.17 26.52 7.11l9.63-28.41Zm56.19 27.75a239.931 239.931 0 0 0-27.18-15.72l-13.29 26.88c8.26 4.1 16.19 8.69 23.79 13.77l16.68-24.93Zm-239.55-15.72a238.92 238.92 0 0 0-27.15 15.72l16.68 24.9a210.061 210.061 0 0 1 23.79-13.74l-13.32-26.88Zm-52.05 34.83a242.262 242.262 0 0 0-22.2 22.2l22.56 19.8c6.06-6.9 12.54-13.38 19.44-19.44l-19.8-22.56Zm338.7 22.2a239.88 239.88 0 0 0-22.2-22.2l-19.8 22.56a207.38 207.38 0 0 1 19.44 19.44l22.56-19.8Zm34.83 52.05a239.864 239.864 0 0 0-15.72-27.15l-24.9 16.68c5.08 7.6 9.66 15.53 13.74 23.79l26.88-13.32Zm-414.84-27.15a228.59 228.59 0 0 0-15.72 27.18l26.88 13.29c4.1-8.26 8.69-16.19 13.77-23.79l-24.93-16.68Zm-27.75 56.19a239.982 239.982 0 0 0-8.1 30.33l29.4 5.82c1.8-9.06 4.17-17.9 7.11-26.52l-28.41-9.63Zm462.75 30.36a239.89 239.89 0 0 0-8.1-30.36l-28.44 9.63c2.94 8.6 5.31 17.44 7.11 26.52l29.43-5.79ZM.513 224.31a240 240 0 0 0 0 31.38l29.94-1.92c-.602-9.17-.602-18.37 0-27.54l-29.94-1.92ZM480.003 240a239.432 239.432 0 0 0-.51-15.69l-29.94 1.92c.603 9.17.603 18.37 0 27.54l29.94 1.92c.341-5.223.512-10.456.51-15.69ZM4.563 286.8c2.08 10.4 4.78 20.52 8.1 30.36l28.44-9.63a209.968 209.968 0 0 1-7.11-26.52l-29.4 5.82-.03-.03Zm462.75 30.36c3.36-9.86 6.06-19.97 8.1-30.33l-29.4-5.82c-1.8 9.06-4.17 17.9-7.11 26.52l28.41 9.63ZM24.723 346.2a239.985 239.985 0 0 0 15.72 27.15l24.9-16.68a210.076 210.076 0 0 1-13.74-23.79l-26.88 13.32Zm414.84 27.15a231.81 231.81 0 0 0 15.72-27.18l-26.88-13.29c-4.1 8.26-8.69 16.19-13.77 23.79l24.93 16.68Zm-380.01 24.9c6.92 7.88 14.32 15.28 22.2 22.2l19.8-22.56a209.957 209.957 0 0 1-19.44-19.44l-22.56 19.8Zm338.7 22.2c7.88-6.92 15.28-14.32 22.2-22.2l-22.56-19.8c-6.04 6.92-12.52 13.4-19.44 19.44l19.8 22.56Zm-52.05 34.83c9.42-4.66 18.47-9.9 27.15-15.72l-16.68-24.9a209.977 209.977 0 0 1-23.79 13.74l13.32 26.88Zm-239.55-15.72a231.81 231.81 0 0 0 27.18 15.72l13.29-26.88a210.055 210.055 0 0 1-23.79-13.77l-16.68 24.93Zm56.19 27.75c9.86 3.36 19.97 6.06 30.33 8.1l5.82-29.4a210.059 210.059 0 0 1-26.52-7.11l-9.63 28.41Zm123.96 8.13a240.059 240.059 0 0 0 30.36-8.1l-9.63-28.44a209.968 209.968 0 0 1-26.52 7.11l5.82 29.4-.03.03Zm-62.49 4.05c10.449.685 20.932.685 31.38 0l-1.92-29.94c-9.17.603-18.369.603-27.54 0l-1.92 29.94ZM255.003 135a15.001 15.001 0 1 0-30 0v90h-90a14.999 14.999 0 1 0 0 30h90v90a15.002 15.002 0 0 0 25.607 10.607A15.001 15.001 0 0 0 255.003 345v-90h90a15 15 0 1 0 0-30h-90v-90Z"/></g><defs><clipPath id="a"><path fill="#fff" d="M0 0h480v480H0z"/></clipPath></defs></svg>