<svg xmlns="http://www.w3.org/2000/svg" width="216" height="99" fill="none"><path fill="#F3F7FF" fill-rule="evenodd" d="M46 91h91c.515 0 1.017-.056 1.5-.161.483.105.985.161 1.5.161h52a7 7 0 1 0 0-14h-6a7 7 0 1 1 0-14h19a7 7 0 1 0 0-14h-22a7 7 0 1 0 0-14h-64a7 7 0 1 0 0-14H62a7 7 0 1 0 0 14H22a7 7 0 1 0 0 14h25a7 7 0 1 1 0 14H7a7 7 0 1 0 0 14h39a7 7 0 1 0 0 14Zm163 0a7 7 0 1 0 0-14 7 7 0 0 0 0 14Z" clip-rule="evenodd"/><path fill="#fff" fill-rule="evenodd" d="M75 97c-12.15 0-22-9.626-22-21.5S62.85 54 75 54c.517 0 1.03.017 1.537.052A34.205 34.205 0 0 1 76 48c0-18.778 15.222-34 34-34 14.991 0 27.716 9.702 32.239 23.17A31.347 31.347 0 0 1 145.5 37c16.845 0 30.5 13.431 30.5 30 0 15.74-12.325 28.727-28 29.978V97H75Zm11.996 0h-6.965Z" clip-rule="evenodd"/><path stroke="#1F64E7" stroke-linecap="round" stroke-width="2.5" d="M86.996 97h-6.965M75 97c-12.15 0-22-9.626-22-21.5S62.85 54 75 54c.517 0 1.03.017 1.537.052A34.205 34.205 0 0 1 76 48c0-18.778 15.222-34 34-34 14.991 0 27.716 9.702 32.239 23.17A31.347 31.347 0 0 1 145.5 37c16.845 0 30.5 13.431 30.5 30 0 15.74-12.325 28.727-28 29.978V97H75Z"/><path fill="#E8F0FE" fill-rule="evenodd" d="M99.612 21.343c0 32.223 29.021 58.775 66.388 62.36-4.683 5.758-11.914 9.665-20.153 10.278V94H78.743C70.601 94 57 90.57 57 75.548c0-15.021 10.574-18.451 21.743-18.451.475 0 .946.015 1.413.044-.324-1.685-.381-3.423-.494-5.194-.758-11.963 4.46-27.04 19.968-31.947-.012.447-.018.894-.018 1.343Zm10.504 50.415c-3.038 0-5.502 2.434-5.502 5.437s2.464 5.437 5.502 5.437c3.039 0 5.502-2.434 5.502-5.437s-2.463-5.437-5.502-5.437Z" clip-rule="evenodd"/><path stroke="#1F64E7" stroke-width="2.5" d="M110.5 83a5.5 5.5 0 1 0 0-11 5.5 5.5 0 0 0 0 11Z"/><path stroke="#1F64E7" stroke-linecap="round" stroke-linejoin="round" stroke-width="2.5" d="m95 66 7-5.493-7-5.23"/><path stroke="#1F64E7" stroke-linecap="round" stroke-linejoin="round" stroke-width="2.5" d="m126 66-7-5.493 7-5.23"/><path stroke="#75A4FE" stroke-linecap="round" stroke-width="2.5" d="M120 24a19.035 19.035 0 0 1 13.44 13.293"/><path stroke="#75A4FE" stroke-width="2" d="M141 7a3 3 0 1 0 0-6 3 3 0 0 0 0 6Z"/><path fill="#75A4FE" d="M172 23a3 3 0 1 0 0-6 3 3 0 0 0 0 6Z"/><path fill="#75A4FE" d="M68 26a3 3 0 1 0 0-6 3 3 0 0 0 0 6Z"/></svg>