<svg xmlns="http://www.w3.org/2000/svg" width="216" height="113" fill="none"><path fill="#F3F7FF" fill-rule="evenodd" d="M46 94h91c.515 0 1.017-.056 1.5-.161.483.105.985.161 1.5.161h52a7 7 0 1 0 0-14h-6a7 7 0 1 1 0-14h19a7 7 0 1 0 0-14h-22a7 7 0 1 0 0-14h-64a7 7 0 1 0 0-14H62a7 7 0 1 0 0 14H22a7 7 0 1 0 0 14h25a7 7 0 1 1 0 14H7a7 7 0 1 0 0 14h39a7 7 0 1 0 0 14Zm163 0a7 7 0 1 0 0-14 7 7 0 0 0 0 14Z" clip-rule="evenodd"/><path fill="#fff" fill-rule="evenodd" d="m69.278 99.123-4.07.572a4 4 0 0 1-4.517-3.404L49.556 17.069a4 4 0 0 1 3.404-4.518l78.231-10.994a4 4 0 0 1 4.518 3.404l.957 6.808" clip-rule="evenodd"/><path fill="#E8F0FE" fill-rule="evenodd" d="m71.805 94.712-3.696.526a3.618 3.618 0 0 1-4.096-3.085l-9.996-71.925a3.646 3.646 0 0 1 3.098-4.108l71.037-10.096a3.618 3.618 0 0 1 4.097 3.085l.859 6.18 9.205 66.599c.306 2.212-1.22 4.257-3.407 4.566a6.407 6.407 0 0 1-.071.01l-67.03 8.248Z" clip-rule="evenodd"/><path stroke="#1F64E7" stroke-linecap="round" stroke-width="2.5" d="m69.278 99.123-4.07.572a4 4 0 0 1-4.517-3.404L49.556 17.069a4 4 0 0 1 3.404-4.518l78.231-10.994a4 4 0 0 1 4.518 3.404l.957 6.808"/><path fill="#fff" stroke="#1F64E7" stroke-width="2.5" d="m85.844 18.04 78.567 8.259a2.75 2.75 0 0 1 2.448 3.022l-8.362 79.562a2.75 2.75 0 0 1-3.023 2.447l-78.567-8.258a2.749 2.749 0 0 1-2.447-3.022l8.362-79.562a2.75 2.75 0 0 1 3.022-2.447Z"/><path fill="#fff" fill-rule="evenodd" d="M89.693 29.255a3 3 0 0 1 3.297-2.67l62.655 6.585a3 3 0 0 1 2.67 3.297l-5.54 52.71a3 3 0 0 1-3.297 2.67L86.823 85.26a3 3 0 0 1-2.67-3.297l5.54-52.71Z" clip-rule="evenodd"/><path fill="#E8F0FE" fill-rule="evenodd" d="m92.74 69.878 9.798-6.608a4 4 0 0 1 5.168.594l7.173 7.723a1 1 0 0 0 1.363.096l15.339-12.43a4 4 0 0 1 5.878.936l9.981 15.438 1.433 2.392-.686 8.124a1 1 0 0 1-1.107.91l-56.963-6.329a1 1 0 0 1-.885-1.085l.755-8.199 2.754-1.562Z" clip-rule="evenodd"/><path stroke="#1F64E7" stroke-width="2.5" d="m92.86 27.828 62.654 6.585a1.75 1.75 0 0 1 1.558 1.923l-5.54 52.71a1.75 1.75 0 0 1-1.923 1.558l-62.655-6.586a1.75 1.75 0 0 1-1.558-1.923l5.54-52.71a1.75 1.75 0 0 1 1.924-1.557Z"/><circle cx="105.032" cy="45.949" r="6" fill="#F3F7FF" stroke="#1F64E7" stroke-width="2.5" transform="rotate(6 105.032 45.95)"/><path stroke="#1F64E7" stroke-linecap="round" stroke-width="2.5" d="M90.73 71.425c3.935-2.719 11.808-8.155 11.808-8.155a4 4 0 0 1 5.168.594l7.173 7.723a1 1 0 0 0 1.363.096l15.339-12.43a4 4 0 0 1 5.878.936l11.064 17.556"/></svg>