<svg xmlns="http://www.w3.org/2000/svg" width="167" height="88" fill="none"><path fill="#F3F7FF" fill-rule="evenodd" d="M160 1a7 7 0 1 1 0 14h-40a7 7 0 1 1 0 14h22a7 7 0 1 1 0 14h-10.174c-4.874 0-8.826 3.134-8.826 7 0 2.577 2 4.91 6 7a7 7 0 1 1 0 14H46a7 7 0 1 1 0-14H7a7 7 0 1 1 0-14h40a7 7 0 1 0 0-14H22a7 7 0 1 1 0-14h40a7 7 0 1 1 0-14h98Zm0 28a7 7 0 1 1 0 14 7 7 0 0 1 0-14Z" clip-rule="evenodd"/><path fill="#F3F7FF" stroke="#1F64E7" stroke-width="2.5" d="M73.5 69C92.001 69 107 54.002 107 35.5 107 16.998 92.001 2 73.5 2 54.998 2 40 16.998 40 35.5 40 54.002 54.998 69 73.5 69Z"/><path fill="#fff" fill-rule="evenodd" d="M68.132 61.494c1.759.325 3.548.493 5.368.506C88.135 62 100 50.136 100 35.5S88.135 9 73.5 9c-3.76 0-7.336.783-10.576 2.195a26.604 26.604 0 0 0-13.028 12.247A26.387 26.387 0 0 0 47 35.5a26.403 26.403 0 0 0 6.684 17.596" clip-rule="evenodd"/><path stroke="#1F64E7" stroke-linecap="round" stroke-width="2.5" d="M68.132 61.494c1.759.325 3.548.493 5.368.506C88.135 62 100 50.136 100 35.5S88.135 9 73.5 9c-3.76 0-7.336.783-10.576 2.195a26.604 26.604 0 0 0-13.028 12.247A26.387 26.387 0 0 0 47 35.5a26.403 26.403 0 0 0 6.684 17.596"/><path stroke="#1F64E7" stroke-linecap="round" stroke-width="2.5" d="M56.797 56.075a26.472 26.472 0 0 0 7.204 4.172"/><path fill="#E8F0FE" fill-rule="evenodd" stroke="#1F64E7" stroke-width="2.5" d="M106.03 67.03a4.848 4.848 0 0 0 0 6.854l11.086 11.086a4.846 4.846 0 1 0 6.854-6.854L112.884 67.03a4.846 4.846 0 0 0-6.854 0Z" clip-rule="evenodd"/><path fill="#E8F0FE" fill-rule="evenodd" d="M67 24c0 11.598 9.402 21 21 21 2.278 0 4.472-.363 6.526-1.034-3.353 8.321-11.504 14.195-21.026 14.195-12.515 0-22.66-10.146-22.66-22.661 0-11.34 8.33-20.735 19.205-22.399A20.913 20.913 0 0 0 67 24Z" clip-rule="evenodd"/><path stroke="#75A4FE" stroke-linecap="round" stroke-width="2.5" d="M74 17a19.09 19.09 0 0 0-3.72.364m-3.635 1.112C59.804 21.351 55 28.114 55 36"/><path stroke="#75A4FE" stroke-linecap="round" stroke-linejoin="round" stroke-width="2.5" d="M127.176 35.777H119M133.5 28h-17.176H133.5Zm7 0h-2.221 2.221Z"/><path stroke="#75A4FE" stroke-linecap="round" stroke-linejoin="round" stroke-width="2.5" d="M37.176 57.777H29M32.5 49H15.324 32.5Zm-23 0H5.279 9.5Z"/></svg>